<svg width="22" height="18" viewBox="0 0 22 18" fill="none" xmlns="http://www.w3.org/2000/svg">
<path d="M20.4961 13.0351L20.4344 13.3775L20.7339 13.5544L21.4525 13.9788C21.2613 14.5309 20.9729 15.0379 20.6096 15.4754L19.9051 15.0593L19.5942 14.8757L19.3221 15.1131C18.9938 15.3995 18.6176 15.6211 18.2114 15.7688L17.8823 15.8884V16.2387V17.0887C17.3434 17.189 16.7769 17.1924 16.2145 17.0884V16.2387V15.8884L15.8853 15.7688C15.4791 15.6211 15.1029 15.3995 14.7746 15.1131L14.5025 14.8757L14.1916 15.0593L13.4876 15.4751C13.1235 15.035 12.8352 14.5297 12.6442 13.9787L13.3628 13.5544L13.6624 13.3775L13.6006 13.0351C13.5218 12.5981 13.5218 12.1519 13.6006 11.7149L13.6624 11.3725L13.3628 11.1956L12.6442 10.7712C12.8354 10.2191 13.1238 9.71209 13.4871 9.27459L14.1916 9.69068L14.5025 9.8743L14.7746 9.63691C15.1029 9.3505 15.4791 9.12894 15.8853 8.98123L16.2145 8.86156V8.51133V7.66127C16.7533 7.56104 17.3198 7.55761 17.8823 7.66161V8.51133V8.86156L18.2114 8.98123C18.6176 9.12894 18.9938 9.3505 19.3221 9.63691L19.5942 9.8743L19.9051 9.69068L20.6096 9.27459C20.9729 9.71209 21.2613 10.2191 21.4525 10.7712L20.7339 11.1956L20.4344 11.3725L20.4961 11.7149C20.5749 12.1519 20.5749 12.5981 20.4961 13.0351ZM20.7949 15.5848L20.7921 15.5831C20.793 15.5837 20.7939 15.5843 20.7949 15.5848ZM12.6628 17.5H1.65017C1.02577 17.5 0.5 16.9786 0.5 16.3125V14.85C0.5 12.5069 2.35622 10.625 4.62049 10.625H5.08572C5.88767 10.9836 6.76971 11.1875 7.70081 11.1875C8.63124 11.1875 9.51647 10.9839 10.3163 10.625H10.5192C10.4265 11.2948 10.6939 11.9656 11.2299 12.3789C10.6161 12.8544 10.3528 13.6641 10.5842 14.4279C10.8774 15.4033 11.3959 16.3157 12.0741 17.0661L12.0765 17.0687C12.2435 17.2509 12.4432 17.397 12.6628 17.5ZM14.8844 12.375C14.8844 13.5785 15.8432 14.5801 17.0518 14.5801C18.2604 14.5801 19.2192 13.5785 19.2192 12.375C19.2192 11.1708 18.2563 10.1699 17.0518 10.1699C15.8473 10.1699 14.8844 11.1708 14.8844 12.375ZM11.6013 4.5C11.6013 6.72001 9.84475 8.5 7.70081 8.5C5.55687 8.5 3.80035 6.72001 3.80035 4.5C3.80035 2.27999 5.55687 0.5 7.70081 0.5C9.84475 0.5 11.6013 2.27999 11.6013 4.5Z" stroke="#292929"/>
</svg>
