<svg width="48" height="37" viewBox="0 0 48 37" fill="none" xmlns="http://www.w3.org/2000/svg">
<path d="M12.9078 35.4218C15.5873 35.4218 17.7595 33.2496 17.7595 30.5701C17.7595 27.8906 15.5873 25.7184 12.9078 25.7184C10.2283 25.7184 8.05615 27.8906 8.05615 30.5701C8.05615 33.2496 10.2283 35.4218 12.9078 35.4218Z" stroke="#999999" stroke-width="1.5" stroke-linecap="round" stroke-linejoin="round"/>
<path d="M37.1681 35.4218C39.8476 35.4218 42.0197 33.2496 42.0197 30.5701C42.0197 27.8906 39.8476 25.7184 37.1681 25.7184C34.4886 25.7184 32.3164 27.8906 32.3164 30.5701C32.3164 33.2496 34.4886 35.4218 37.1681 35.4218Z" stroke="#999999" stroke-width="1.5" stroke-linecap="round" stroke-linejoin="round"/>
<path d="M8.05729 30.57H3.20562V20.8667M0.779785 1.46H27.464V16.015M27.464 30.57V16.015M17.7606 30.57H32.3156M42.0189 30.57H46.8706V16.015M46.8706 16.015H27.464M46.8706 16.015L39.5931 3.88583H27.464" stroke="#999999" stroke-width="1.5" stroke-linecap="round" stroke-linejoin="round"/>
<path d="M3.20605 11.1634H12.9094" stroke="#999999" stroke-width="1.5" stroke-linecap="round" stroke-linejoin="round"/>
</svg>
