<svg width="55" height="42" viewBox="0 0 55 42" fill="none" xmlns="http://www.w3.org/2000/svg">
<path d="M9.85076 41.9071V39.1196C9.85076 38.0508 9.20018 37.3541 8.08505 37.3541C7.52759 37.3541 6.92356 37.5399 6.50536 38.1439C6.18028 37.6328 5.71573 37.3541 5.0188 37.3541C4.55404 37.3541 4.0897 37.4933 3.71785 38.0045V37.447H2.74219V41.9071H3.71785V39.4447C3.71785 38.655 4.13605 38.2832 4.78663 38.2832C5.43679 38.2832 5.76229 38.7014 5.76229 39.4447V41.9071H6.73796V39.4447C6.73796 38.655 7.20229 38.2832 7.80632 38.2832C8.4569 38.2832 8.78198 38.7014 8.78198 39.4447V41.9071H9.85076ZM24.2997 37.447H22.7202V36.0997H21.7445V37.447H20.8618V38.3295H21.7443V40.374C21.7443 41.3962 22.1625 42 23.2776 42C23.6958 42 24.1602 41.8607 24.4857 41.6749L24.2067 40.8385C23.928 41.0243 23.6029 41.0709 23.3706 41.0709C22.906 41.0709 22.7202 40.7922 22.7202 40.3274V38.3295H24.2997V37.447ZM32.5697 37.3539C32.0122 37.3539 31.6406 37.6328 31.4082 38.0045V37.447H30.4326V41.9071H31.4082V39.3983C31.4082 38.655 31.7333 38.2368 32.3373 38.2368C32.5231 38.2368 32.7555 38.2834 32.9413 38.3297L33.2201 37.4006C33.0343 37.3541 32.7555 37.3541 32.5697 37.3541V37.3539ZM20.0719 37.8186C19.6072 37.4933 18.9568 37.3541 18.2599 37.3541C17.1449 37.3541 16.4017 37.9115 16.4017 38.7943C16.4017 39.5378 16.9591 39.9558 17.9348 40.0952L18.3993 40.1418C18.9104 40.2345 19.1892 40.374 19.1892 40.6064C19.1892 40.9314 18.8175 41.1638 18.167 41.1638C17.5166 41.1638 17.0055 40.9314 16.6802 40.6993L16.2156 41.4425C16.7267 41.8142 17.4237 42 18.1204 42C19.4213 42 20.1648 41.3962 20.1648 40.5598C20.1648 39.77 19.5608 39.3518 18.6315 39.2125L18.167 39.1659C17.7488 39.1194 17.4237 39.0267 17.4237 38.7479C17.4237 38.4227 17.7488 38.2368 18.2599 38.2368C18.8175 38.2368 19.375 38.469 19.6537 38.6085L20.0719 37.8186ZM45.9968 37.3541C45.4391 37.3541 45.0675 37.6328 44.8351 38.0045V37.447H43.8594V41.9071H44.8351V39.3983C44.8351 38.655 45.1604 38.2368 45.7642 38.2368C45.9502 38.2368 46.1826 38.2834 46.3684 38.3297L46.6472 37.4006C46.4613 37.3541 46.1826 37.3541 45.9968 37.3541ZM33.5454 39.677C33.5454 41.0243 34.4745 42 35.9149 42C36.5653 42 37.0298 41.8607 37.4944 41.4891L37.0298 40.6993C36.6582 40.978 36.2865 41.1173 35.8683 41.1173C35.0785 41.1173 34.521 40.5598 34.521 39.677C34.521 38.8409 35.0785 38.2832 35.8683 38.2368C36.2865 38.2368 36.6582 38.3761 37.0298 38.655L37.4944 37.8652C37.0298 37.4933 36.5653 37.3541 35.9149 37.3541C34.4745 37.3541 33.5454 38.3297 33.5454 39.677ZM42.5587 39.677V37.447H41.583V38.0045C41.2578 37.5865 40.7932 37.3541 40.1892 37.3541C38.9348 37.3541 37.9591 38.3297 37.9591 39.677C37.9591 41.0243 38.9348 42 40.1892 42C40.8396 42 41.3043 41.7678 41.583 41.3496V41.9071H42.5587V39.677ZM38.9811 39.677C38.9811 38.8872 39.4922 38.2368 40.3284 38.2368C41.1183 38.2368 41.676 38.8409 41.676 39.677C41.676 40.4669 41.1183 41.1173 40.3284 41.1173C39.4922 41.0707 38.9811 40.4669 38.9811 39.677ZM27.3198 37.3541C26.0188 37.3541 25.0895 38.2832 25.0895 39.677C25.0895 41.0709 26.0186 42 27.3661 42C28.0165 42 28.6671 41.8142 29.1782 41.3962L28.7134 40.6993C28.3418 40.978 27.8772 41.1638 27.4127 41.1638C26.8086 41.1638 26.2046 40.8851 26.0652 40.095H29.364V39.7236C29.4106 38.2832 28.5742 37.3541 27.3195 37.3541H27.3198ZM27.3198 38.1903C27.9236 38.1903 28.342 38.5621 28.4347 39.2591H26.1117C26.2046 38.655 26.6228 38.1903 27.3198 38.1903ZM51.5255 39.677V35.6815H50.5498V38.0045C50.2245 37.5865 49.76 37.3541 49.156 37.3541C47.9016 37.3541 46.9259 38.3297 46.9259 39.677C46.9259 41.0243 47.9016 42 49.156 42C49.8065 42 50.2711 41.7678 50.5498 41.3496V41.9071H51.5255V39.677ZM47.9481 39.677C47.9481 38.8872 48.459 38.2368 49.2954 38.2368C50.0853 38.2368 50.6427 38.8409 50.6427 39.677C50.6427 40.4669 50.0853 41.1173 49.2954 41.1173C48.459 41.0707 47.9481 40.4669 47.9481 39.677ZM15.3329 39.677V37.447H14.3572V38.0045C14.0319 37.5865 13.5674 37.3541 12.9634 37.3541C11.709 37.3541 10.7333 38.3297 10.7333 39.677C10.7333 41.0243 11.709 42 12.9634 42C13.6139 42 14.0785 41.7678 14.3572 41.3496V41.9071H15.3329V39.677ZM11.709 39.677C11.709 38.8872 12.2201 38.2368 13.0563 38.2368C13.8461 38.2368 14.4038 38.8409 14.4038 39.677C14.4038 40.4669 13.8461 41.1173 13.0563 41.1173C12.2201 41.0707 11.709 40.4669 11.709 39.677Z" fill="black"/>
<path d="M19.7461 3.57736H34.381V29.8739H19.7461V3.57736Z" fill="#FF5F00"/>
<path d="M20.6749 16.7257C20.6749 11.3829 23.1837 6.64381 27.0398 3.57735C24.2059 1.3473 20.6286 0 16.7259 0C7.48 0 0 7.48 0 16.7257C0 25.9712 7.48 33.4514 16.7257 33.4514C20.6284 33.4514 24.2057 32.1041 27.0398 29.8739C23.1837 26.854 20.6749 22.0686 20.6749 16.7257Z" fill="#EB001B"/>
<path d="M54.1257 16.7257C54.1257 25.9712 46.6457 33.4514 37.4 33.4514C33.4974 33.4514 29.92 32.1041 27.0859 29.8739C30.9886 26.8076 33.451 22.0686 33.451 16.7257C33.451 11.3829 30.942 6.64381 27.0859 3.57735C29.9198 1.3473 33.4974 0 37.4 0C46.6457 0 54.1259 7.52656 54.1259 16.7257H54.1257Z" fill="#F79E1B"/>
</svg>
