<svg width="46" height="39" viewBox="0 0 46 39" fill="none" xmlns="http://www.w3.org/2000/svg">
<path d="M38.4366 9.61652C38.5918 9.61652 38.7406 9.55489 38.8503 9.44518C38.96 9.33547 39.0216 9.18667 39.0216 9.03152V7.08345C39.021 6.57536 38.8189 6.08825 38.4596 5.72898C38.1003 5.3697 37.6132 5.16759 37.1051 5.16697H33.9613L33.2441 3.05042C33.1953 2.90648 33.0925 2.78716 32.9573 2.71772C32.8222 2.64828 32.6653 2.63416 32.5199 2.67836L15.4927 7.85449C15.3518 7.9059 15.2359 8.0094 15.169 8.14366C15.1021 8.27793 15.0892 8.43274 15.1329 8.57623C15.1767 8.71971 15.2738 8.84095 15.4043 8.91499C15.5348 8.98902 15.6887 9.01021 15.8343 8.97419L32.3186 3.96186L33.8899 8.60095C33.9397 8.74788 34.0459 8.86901 34.185 8.93769C34.3241 9.00637 34.4848 9.01697 34.6317 8.96717C34.7787 8.91736 34.8998 8.81123 34.9685 8.67212C35.0371 8.53301 35.0477 8.37231 34.9979 8.22538L34.3579 6.33581H37.1063C37.5181 6.33581 37.8528 6.67044 37.8528 7.08228V9.03152C37.8516 9.35444 38.1137 9.61652 38.4366 9.61652Z" fill="#999999" stroke="#999999" stroke-width="0.5"/>
<path d="M43.1053 18.3916C42.9501 18.3916 42.8013 18.4533 42.6916 18.563C42.5819 18.6727 42.5203 18.8215 42.5203 18.9767C42.5203 19.1318 42.5819 19.2806 42.6916 19.3903C42.8013 19.5 42.9501 19.5617 43.1053 19.5617C43.516 19.5617 43.6903 19.736 43.6903 20.1467V27.1667C43.6903 27.5774 43.516 27.7517 43.1053 27.7517H33.7452C33.3345 27.7517 33.1602 27.5774 33.1602 27.1667V21.3167C33.1602 20.906 33.3345 20.7317 33.7452 20.7317H40.7653C40.9204 20.7317 41.0692 20.67 41.1789 20.5603C41.2886 20.4506 41.3503 20.3018 41.3503 20.1467V13.1266C41.3503 12.0607 40.6611 11.3716 39.5953 11.3716H3.90993C2.46731 11.3716 1.56991 10.4742 1.56991 9.03156C1.56991 7.58894 2.46731 6.69154 3.90993 6.69154H9.84891L6.30846 7.85921C6.23285 7.88101 6.16242 7.91785 6.10138 7.9675C6.04034 8.01716 5.98995 8.07862 5.95321 8.1482C5.91648 8.21779 5.89416 8.29407 5.88759 8.37248C5.88102 8.45089 5.89034 8.52982 5.91499 8.60455C5.93963 8.67928 5.9791 8.74826 6.03103 8.80738C6.08296 8.8665 6.14628 8.91453 6.2172 8.94861C6.28813 8.98269 6.3652 9.00211 6.4438 9.0057C6.52241 9.0093 6.60093 8.99701 6.67467 8.96955L27.8741 1.98108C27.9471 1.95695 28.0146 1.91869 28.0728 1.86848C28.131 1.81826 28.1787 1.75707 28.2133 1.68841C28.2478 1.61975 28.2685 1.54495 28.2742 1.46829C28.2798 1.39163 28.2703 1.31461 28.2462 1.24163C28.222 1.16865 28.1838 1.10113 28.1336 1.04293C28.0833 0.984739 28.0222 0.937004 27.9535 0.902454C27.8848 0.867905 27.81 0.847219 27.7334 0.841576C27.6567 0.835933 27.5797 0.845444 27.5067 0.869567L13.3496 5.53791C13.3227 5.53323 13.2981 5.52153 13.27 5.52153H3.90993C1.81094 5.52153 0.399902 6.93256 0.399902 9.03156V34.7718C0.399902 36.8708 1.81094 38.2818 3.90993 38.2818H39.5953C40.6611 38.2818 41.3503 37.5927 41.3503 36.5268V30.6768C41.3503 30.5216 41.2886 30.3728 41.1789 30.2631C41.0692 30.1534 40.9204 30.0918 40.7653 30.0918C40.6101 30.0918 40.4613 30.1534 40.3516 30.2631C40.2419 30.3728 40.1803 30.5216 40.1803 30.6768V36.5268C40.1803 36.9375 40.0059 37.1118 39.5953 37.1118H3.90993C2.46731 37.1118 1.56991 36.2144 1.56991 34.7718V11.7366C2.17013 12.2432 2.96457 12.5416 3.90993 12.5416H39.5953C40.0059 12.5416 40.1803 12.7159 40.1803 13.1266V19.5617H33.7452C32.6793 19.5617 31.9902 20.2508 31.9902 21.3167V27.1667C31.9902 28.2326 32.6793 28.9217 33.7452 28.9217H43.1053C44.1712 28.9217 44.8603 28.2326 44.8603 27.1667V20.1467C44.8603 19.0808 44.1712 18.3916 43.1053 18.3916Z" fill="#999999" stroke="#999999" stroke-width="0.5"/>
<path d="M37.8399 25.4117C38.4861 25.4117 39.0099 24.8878 39.0099 24.2417C39.0099 23.5955 38.4861 23.0716 37.8399 23.0716C37.1938 23.0716 36.6699 23.5955 36.6699 24.2417C36.6699 24.8878 37.1938 25.4117 37.8399 25.4117Z" fill="#999999" stroke="#999999" stroke-width="0.5"/>
</svg>
