<svg width="36" height="43" viewBox="0 0 36 43" fill="none" xmlns="http://www.w3.org/2000/svg">
<path d="M30.4888 3.18616C28.5323 0.956088 24.9955 0 20.4709 0H7.33924C6.89157 1.6576e-05 6.45859 0.159728 6.11815 0.45042C5.7777 0.741112 5.55212 1.14372 5.48196 1.58585L0.014189 36.2638C-0.0944925 36.9476 0.435014 37.5669 1.1281 37.5669H9.23512L11.2711 24.6527L11.208 25.0571C11.353 24.1443 12.1337 23.471 13.0582 23.471H16.9106C24.4788 23.471 30.4047 20.397 32.1357 11.5046C32.1871 11.2417 32.2316 10.9857 32.2701 10.7356C32.0516 10.6199 32.0516 10.6199 32.2701 10.7356C32.7856 7.44889 32.2666 5.21166 30.4888 3.18616Z" fill="#27346A"/>
<path d="M14.3732 9.55161C14.5948 9.44608 14.8372 9.39139 15.0827 9.39154H25.3777C26.5968 9.39154 27.7339 9.47087 28.7729 9.63811C29.0637 9.68447 29.3529 9.73982 29.6403 9.80408C30.0475 9.89395 30.4501 10.0039 30.8464 10.1336C31.3573 10.3042 31.833 10.5029 32.2703 10.7356C32.7856 7.44763 32.2666 5.21166 30.4888 3.18616C28.5311 0.956088 24.9955 0 20.4709 0H7.33811C6.41348 0 5.62687 0.673151 5.48196 1.58585L0.0141897 36.2625C-0.0944917 36.9475 0.435014 37.5659 1.12698 37.5659H9.23512L13.4592 10.7788C13.5008 10.5155 13.6057 10.2663 13.7649 10.0525C13.9241 9.83873 14.1328 9.66683 14.3732 9.55161Z" fill="#27346A"/>
<path d="M32.137 11.5047C30.4059 20.3957 24.4801 23.471 16.9119 23.471H13.0583C12.1338 23.471 11.353 24.1443 11.2093 25.0571L8.67638 41.1143C8.58174 41.7128 9.04455 42.255 9.65002 42.255H16.484C16.8755 42.2549 17.2541 42.1152 17.5517 41.8609C17.8494 41.6066 18.0465 41.2544 18.1077 40.8677L18.1742 40.5195L19.4622 32.3563L19.5452 31.9052C19.6064 31.5185 19.8035 31.1664 20.1011 30.9121C20.3987 30.6578 20.7773 30.518 21.1687 30.5179H22.1915C28.8117 30.5179 33.9954 27.8284 35.5102 20.0499C36.1425 16.7993 35.8153 14.0853 34.1427 12.1791C33.6353 11.6017 33.0053 11.1248 32.2714 10.7356C32.2316 10.9869 32.1885 11.2417 32.137 11.5047Z" fill="#2790C3"/>
<path d="M30.4564 10.0133C30.1865 9.93448 29.9141 9.8647 29.6395 9.80407C29.352 9.74086 29.0628 9.68589 28.7721 9.63923C27.7319 9.47087 26.5957 9.39139 25.3755 9.39139H15.0818C14.8361 9.39083 14.5935 9.446 14.3723 9.55273C14.1316 9.6676 13.9226 9.83939 13.7634 10.0532C13.6041 10.2671 13.4993 10.5165 13.4582 10.78L11.2702 24.6527L11.207 25.0571C11.351 24.1443 12.1317 23.471 13.0563 23.471H16.9099C24.478 23.471 30.4038 20.397 32.1348 11.5046C32.1863 11.2416 32.2296 10.9868 32.2693 10.7356C31.831 10.5042 31.3565 10.3042 30.8455 10.1348C30.7166 10.092 30.5869 10.0515 30.4566 10.0133" fill="#1F264F"/>
</svg>
