<svg xmlns="http://www.w3.org/2000/svg" width="30.591" height="36.061" viewBox="0 0 30.591 36.061">
  <g id="Pending" transform="translate(-0.85 -0.97)">
    <path id="Path_263" data-name="Path 263" d="M29.193,18.965V8.185a1.034,1.034,0,0,0-.3-.733L23.461,2.024a1.035,1.035,0,0,0-.731-.3H2.635A1.035,1.035,0,0,0,1.6,2.755V35.176a1.035,1.035,0,0,0,1.035,1.035H13.672" fill="none" stroke="#999" stroke-linecap="round" stroke-linejoin="round" stroke-width="1.5"/>
    <path id="Path_264" data-name="Path 264" d="M8.5,22.415h5.174M8.5,15.516h0Zm0-6.9h0Z" fill="none" stroke="#999" stroke-linecap="round" stroke-linejoin="round" stroke-width="1.5"/>
    <path id="Path_265" data-name="Path 265" d="M22.294,7.583V2.33A.611.611,0,0,1,23.336,1.9l5.677,5.677a.609.609,0,0,1-.431,1.042H23.329a1.035,1.035,0,0,1-1.035-1.035Z" fill="#999" stroke="#999" stroke-linecap="round" stroke-linejoin="round" stroke-width="1.5"/>
    <path id="Path_266" data-name="Path 266" d="M25.665,27.483,28.4,30.218m-2.735-2.733L27.39,25.76a1.933,1.933,0,1,1,2.735,2.733L28.4,30.218Zm0,0-5.158,5.158a1.724,1.724,0,0,0-.483.954L19.6,36.28l2.685-.419a1.724,1.724,0,0,0,.954-.483l5.156-5.16Z" fill="none" stroke="#999" stroke-linecap="round" stroke-linejoin="round" stroke-width="1.5"/>
  </g>
</svg>
