<svg width="89" height="28" viewBox="0 0 89 28" fill="none" xmlns="http://www.w3.org/2000/svg">
<path d="M46.0286 8.95127C45.9779 12.8518 49.5966 15.0283 52.3226 16.3225C55.1233 17.6502 56.0641 18.5017 56.053 19.6892C56.0321 21.5064 53.8189 22.3084 51.7479 22.3396C48.1348 22.3941 46.0339 21.3892 44.3637 20.6291L43.0621 26.5629C44.7378 27.3151 47.8406 27.9712 51.0582 28C58.611 28 63.5523 24.3677 63.579 18.7361C63.6086 11.5888 53.4316 11.1932 53.5012 7.9985C53.5252 7.0298 54.4739 5.99608 56.5529 5.73325C57.582 5.60047 60.4227 5.49886 63.6433 6.94378L64.9074 1.20274C63.1754 0.588329 60.9494 0 58.1778 0C51.069 0 46.069 3.68171 46.0286 8.95127ZM77.0538 0.494507C75.6747 0.494507 74.5125 1.27827 73.9938 2.48101L63.2049 27.5783H70.7522L72.2541 23.5345H81.4767L82.3479 27.5783H89L83.1952 0.494507H77.0538ZM78.1097 7.81086L80.2877 17.9811H74.3226L78.1097 7.81086ZM36.878 0.494846L30.9289 27.578H38.1209L44.0672 0.494169H36.878V0.494846ZM26.2387 0.494169L18.7529 18.9288L15.7248 3.25461C15.3695 1.50486 13.9664 0.494507 12.4082 0.494507H0.171395L0 1.28098C2.51216 1.81207 5.36642 2.66865 7.09566 3.58518C8.15393 4.14506 8.4557 4.63449 8.80335 5.96492L14.5386 27.5783H22.1388L33.7908 0.494507H26.2387" fill="url(#paint0_linear_120_6)"/>
<defs>
<linearGradient id="paint0_linear_120_6" x1="40.9169" y1="28.5617" x2="41.7065" y2="-0.195891" gradientUnits="userSpaceOnUse">
<stop stop-color="#222357"/>
<stop offset="1" stop-color="#254AA5"/>
</linearGradient>
</defs>
</svg>
