<svg width="100" height="94" viewBox="0 0 100 94" fill="none" xmlns="http://www.w3.org/2000/svg">
<g opacity="0.5">
<path d="M91.5561 29.5397L99.454 80.8616C99.7038 82.4859 99.5996 84.1451 99.1485 85.7254C98.6974 87.3057 97.9102 88.7699 96.8406 90.0176C95.771 91.2654 94.4444 92.2672 92.9516 92.9546C91.4588 93.6419 89.8351 93.9985 88.1917 94H12.1213C10.4769 94.0002 8.85192 93.6448 7.35774 92.9581C5.86356 92.2715 4.53554 91.2699 3.46471 90.0219C2.39388 88.774 1.60558 87.3093 1.15386 85.7281C0.70213 84.147 0.597659 82.4869 0.847607 80.8616L8.74547 29.5397C9.15975 26.8459 10.5251 24.3894 12.5942 22.6153C14.6633 20.8412 17.2993 19.8667 20.0249 19.8684H80.2881C83.0127 19.8681 85.6474 20.8432 87.7153 22.6172C89.7832 24.3911 91.1477 26.8468 91.5618 29.5397H91.5561Z" fill="#FAAB35"/>
<path d="M61.5599 11.4049C61.5599 8.3801 60.3584 5.47923 58.2195 3.3404C56.0807 1.20158 53.1799 0 50.1551 0C47.1303 0 44.2295 1.20158 42.0907 3.3404C39.9518 5.47923 38.7502 8.3801 38.7502 11.4049" fill="#FAAB35"/>
</g>
<line x1="26.1372" y1="65.9885" x2="78.1602" y2="65.9885" stroke="#FFF7B2" stroke-width="2" stroke-linecap="round"/>
<line x1="36.9419" y1="49.7816" x2="67.3557" y2="49.7816" stroke="#FFF7B2" stroke-width="2" stroke-linecap="round"/>
</svg>
