<svg width="95" height="92" viewBox="0 0 95 92" fill="none" xmlns="http://www.w3.org/2000/svg">
<path d="M47.2198 33.8234L65.1043 26.6755L20.8357 8.96813L5.57194 15.0713C4.80143 15.3796 4.07816 15.7949 3.42344 16.3049L47.2198 33.8175V33.8234ZM0.206594 21.381C0.0684835 22.0091 -0.000787879 22.6503 6.75939e-06 23.2934V68.4237C-0.000288865 70.1936 0.529845 71.9229 1.52199 73.3885C2.51413 74.854 3.92275 75.9887 5.56604 76.6459L39.5466 90.2334C41.0812 90.8472 42.6631 91.2722 44.2685 91.5024V38.9999L0.206594 21.381ZM50.171 91.5024C51.7765 91.2663 53.3583 90.8531 54.893 90.2334L88.8735 76.64C90.5149 75.9835 91.9223 74.8507 92.9143 73.3874C93.9063 71.9242 94.4375 70.1974 94.4396 68.4296V23.2934C94.4396 22.6442 94.3687 21.9949 94.233 21.381L50.171 38.9999V91.5024ZM91.022 16.3049L73.0431 23.4941L28.7746 5.78669L39.5466 1.47789C44.4723 -0.492629 49.9673 -0.492629 54.893 1.47789L88.8735 15.0713C89.644 15.3798 90.3672 15.795 91.022 16.3049Z" fill="#FAC661"/>
</svg>
