<svg width="94" height="92" viewBox="0 0 94 92" fill="none" xmlns="http://www.w3.org/2000/svg">
<path d="M39.0131 52.0649C44.1457 52.0618 49.1175 50.2646 53.0769 46.9811H52.3816C50.3332 47.002 48.3157 46.4786 46.533 45.4638C44.7504 44.4491 43.2661 42.9789 42.2301 41.2022C41.1941 39.4254 40.6433 37.4051 40.6334 35.3456C40.6234 33.286 41.1547 31.2604 42.1735 29.4737L52.1604 12.0933C49.3554 9.95759 46.0842 8.52534 42.6183 7.91545C39.1524 7.30556 35.5918 7.53562 32.232 8.58653C28.8722 9.63744 25.8103 11.4789 23.3003 13.958C20.7903 16.4371 18.9047 19.4824 17.8 22.8411C16.6953 26.1997 16.4033 29.7748 16.9484 33.2697C17.4935 36.7645 18.8598 40.0782 20.934 42.9357C23.0083 45.7932 25.7305 48.112 28.8748 49.6998C32.0191 51.2875 35.4947 52.0983 39.0131 52.0649Z" fill="#CD6AFC"/>
<path d="M67.2817 2.00053L49.2287 33.1151C48.8087 33.7315 48.5675 34.4521 48.532 35.1971C48.4965 35.9421 48.668 36.6824 49.0275 37.3359C49.387 37.9895 49.9205 38.5307 50.5688 38.8997C51.217 39.2687 51.9549 39.451 52.7004 39.4264H88.838C89.5836 39.451 90.3214 39.2687 90.9697 38.8997C91.618 38.5307 92.1514 37.9895 92.5109 37.3359C92.8704 36.6824 93.0419 35.9421 93.0064 35.1971C92.9709 34.4521 92.7298 33.7315 92.3098 33.1151L74.2567 2.00053C73.9007 1.39167 73.3914 0.886624 72.7796 0.535649C72.1677 0.184674 71.4746 0 70.7692 0C70.0638 0 69.3707 0.184674 68.7589 0.535649C68.147 0.886624 67.6377 1.39167 67.2817 2.00053Z" fill="#CD6AFC"/>
<path d="M48.8308 57.1209H46.2304C42.7736 58.7092 38.9276 59.6123 34.8791 59.6123C30.8307 59.6123 27.0002 58.7092 23.5278 57.1209H20.9275C9.37376 57.1209 0 66.4947 0 78.0484V84.5259C0 88.6523 3.34777 92 7.4741 92H62.2841C66.4105 92 69.7582 88.6523 69.7582 84.5259V78.0484C69.7582 66.4947 60.3845 57.1209 48.8308 57.1209Z" fill="#CD6AFC"/>
</svg>
