<svg width="104" height="74" viewBox="0 0 104 74" fill="none" xmlns="http://www.w3.org/2000/svg">
<path d="M31.2 37C41.2587 37 49.4 28.7246 49.4 18.5C49.4 8.27545 41.2587 0 31.2 0C21.1412 0 13 8.27545 13 18.5C13 28.7246 21.1412 37 31.2 37ZM43.68 42.2857H42.3312C38.9512 43.9375 35.1975 44.9286 31.2 44.9286C27.2025 44.9286 23.465 43.9375 20.0687 42.2857H18.72C8.385 42.2857 0 50.8089 0 61.3143V66.0714C0 70.4487 3.49375 74 7.8 74H54.6C58.9062 74 62.4 70.4487 62.4 66.0714V61.3143C62.4 50.8089 54.015 42.2857 43.68 42.2857ZM78 37C86.6125 37 93.6 29.8973 93.6 21.1429C93.6 12.3884 86.6125 5.28571 78 5.28571C69.3875 5.28571 62.4 12.3884 62.4 21.1429C62.4 29.8973 69.3875 37 78 37ZM85.8 42.2857H85.1825C82.9238 43.0786 80.535 43.6071 78 43.6071C75.465 43.6071 73.0762 43.0786 70.8175 42.2857H70.2C66.885 42.2857 63.83 43.2603 61.1487 44.8295C65.1137 49.1737 67.6 54.9384 67.6 61.3143V67.6571C67.6 68.0205 67.5187 68.3674 67.5025 68.7143H96.2C100.506 68.7143 104 65.1629 104 60.7857C104 50.5612 95.8587 42.2857 85.8 42.2857Z" fill="#FF7D7D"/>
</svg>
