<svg width="87" height="106" viewBox="0 0 87 106" fill="none" xmlns="http://www.w3.org/2000/svg">
<path d="M1 101.97V7.03C1 6.22639 1.32355 5.4557 1.89946 4.88747C2.47537 4.31923 3.25648 4 4.07095 4H63.7087C64.5229 4.00071 65.3035 4.3204 65.8788 4.8888L81.9911 20.7862C82.2775 21.0685 82.5046 21.4039 82.6592 21.7731C82.8138 22.1423 82.8929 22.538 82.8919 22.9375V101.97C82.8919 102.368 82.8125 102.762 82.6581 103.13C82.5038 103.497 82.2776 103.831 81.9924 104.113C81.7073 104.394 81.3687 104.617 80.9961 104.769C80.6236 104.922 80.2242 105 79.8209 105H4.07095C3.66766 105 3.26833 104.922 2.89575 104.769C2.52316 104.617 2.18462 104.394 1.89946 104.113C1.6143 103.831 1.38809 103.497 1.23376 103.13C1.07943 102.762 1 102.368 1 101.97Z" fill="#5CC5E4" stroke="#C2F0FF" stroke-width="1.5" stroke-linecap="round" stroke-linejoin="round"/>
<path d="M80.952 25.1081C81.6754 25.1105 82.4007 24.9257 83.0381 24.5548C83.6783 24.1824 84.2213 23.6253 84.5541 22.9215L84.5541 22.9215C84.8895 22.2123 84.9819 21.4124 84.8032 20.638C84.626 19.8699 84.2016 19.2071 83.6345 18.7145L65.6688 2.98895L65.6669 2.98731C65.1044 2.49611 64.418 2.18561 63.7052 2.06183C62.9923 1.93804 62.2513 2.00016 61.5667 2.24818L62.248 4.12858L61.5667 2.24818C60.8817 2.49634 60.255 2.93105 59.793 3.535C59.3277 4.14315 59.0563 4.89109 59.0547 5.68425H59.0547V5.68832V20.2414C59.0547 21.6246 59.6847 22.8876 60.6966 23.7734C61.7001 24.6517 63.0103 25.1081 64.3297 25.1081H80.952ZM80.952 25.1081C80.9503 25.1081 80.9487 25.1081 80.947 25.1081L80.9559 23.1081M80.952 25.1081H80.9559V23.1081M80.9559 23.1081H64.3297C63.4611 23.1081 62.6281 22.8061 62.0139 22.2685C61.3997 21.7309 61.0547 21.0017 61.0547 20.2414V5.68832L64.3515 4.49388L82.3205 20.2223C82.5927 20.4579 82.7786 20.7592 82.8544 21.0877C82.9302 21.4161 82.8925 21.7569 82.746 22.0666C82.5996 22.3762 82.3512 22.6406 82.0323 22.8261C81.7135 23.0116 81.3388 23.1098 80.9559 23.1081Z" fill="#5CC5E4" stroke="#C2F0FF" stroke-width="4" stroke-linecap="round" stroke-linejoin="round"/>
<path d="M40.216 86.36V78.104L41.496 79.32C38.3813 79.2773 35.4587 78.8293 32.728 77.976C29.9973 77.08 27.608 75.7787 25.56 74.072L27.736 68.824C29.784 70.4453 31.96 71.6613 34.264 72.472C36.6107 73.2827 39.256 73.688 42.2 73.688C45.656 73.688 48.1947 73.048 49.816 71.768C51.48 70.4453 52.312 68.7813 52.312 66.776C52.312 65.112 51.7147 63.7893 50.52 62.808C49.368 61.8267 47.4053 61.0373 44.632 60.44L38.04 59.032C34.1147 58.1787 31.2133 56.7707 29.336 54.808C27.4587 52.8453 26.52 50.2427 26.52 47C26.52 44.4827 27.1173 42.2427 28.312 40.28C29.5493 38.3173 31.256 36.76 33.432 35.608C35.6507 34.456 38.232 33.7947 41.176 33.624L40.216 34.52V26.52H45.464V34.52L44.376 33.624C46.7653 33.7093 49.1333 34.2 51.48 35.096C53.8267 35.9493 55.8107 37.2293 57.432 38.936L55.32 43.992C53.656 42.3707 51.7787 41.176 49.688 40.408C47.5973 39.5973 45.2933 39.192 42.776 39.192C39.704 39.192 37.272 39.896 35.48 41.304C33.7307 42.712 32.856 44.5467 32.856 46.808C32.856 48.5147 33.4107 49.9013 34.52 50.968C35.6293 52.0347 37.464 52.8453 40.024 53.4L46.616 54.808C50.712 55.6613 53.7627 57.0267 55.768 58.904C57.7733 60.7813 58.776 63.2773 58.776 66.392C58.776 68.824 58.1573 70.9787 56.92 72.856C55.6827 74.6907 53.976 76.1627 51.8 77.272C49.6667 78.3387 47.192 79 44.376 79.256L45.464 78.04V86.36H40.216Z" fill="#C2F0FF"/>
</svg>
