<svg width="136" height="91" viewBox="0 0 136 91" fill="none" xmlns="http://www.w3.org/2000/svg">
<path d="M15.7474 54.0312L11.4526 45.5H41.5158L38.08 36.9688H10.0211L5.72632 28.4375H50.3916L46.9558 19.9062H4.92463L0 11.375H21.4737C21.4737 8.35816 22.6803 5.46489 24.8281 3.33166C26.9759 1.19843 29.8889 0 32.9263 0H101.642V22.75H118.821L136 45.5V73.9375H124.547C124.547 78.4628 122.737 82.8027 119.516 86.0025C116.294 89.2024 111.925 91 107.368 91C102.812 91 98.4427 89.2024 95.2211 86.0025C91.9994 82.8027 90.1895 78.4628 90.1895 73.9375H67.2842C67.2842 78.4628 65.4743 82.8027 62.2526 86.0025C59.0309 89.2024 54.6614 91 50.1053 91C45.5491 91 41.1796 89.2024 37.9579 86.0025C34.7362 82.8027 32.9263 78.4628 32.9263 73.9375H21.4737V54.0312H15.7474ZM107.368 82.4688C109.646 82.4688 111.831 81.5699 113.442 79.97C115.053 78.3701 115.958 76.2001 115.958 73.9375C115.958 71.6749 115.053 69.5049 113.442 67.905C111.831 66.3051 109.646 65.4062 107.368 65.4062C105.09 65.4062 102.906 66.3051 101.295 67.905C99.6839 69.5049 98.779 71.6749 98.779 73.9375C98.779 76.2001 99.6839 78.3701 101.295 79.97C102.906 81.5699 105.09 82.4688 107.368 82.4688ZM115.958 31.2812H101.642V45.5H127.181L115.958 31.2812ZM50.1053 82.4688C52.3833 82.4688 54.5681 81.5699 56.1789 79.97C57.7898 78.3701 58.6947 76.2001 58.6947 73.9375C58.6947 71.6749 57.7898 69.5049 56.1789 67.905C54.5681 66.3051 52.3833 65.4062 50.1053 65.4062C47.8272 65.4062 45.6424 66.3051 44.0316 67.905C42.4207 69.5049 41.5158 71.6749 41.5158 73.9375C41.5158 76.2001 42.4207 78.3701 44.0316 79.97C45.6424 81.5699 47.8272 82.4688 50.1053 82.4688Z" fill="#61FACA"/>
</svg>
