<svg width="87" height="106" viewBox="0 0 87 106" fill="none" xmlns="http://www.w3.org/2000/svg">
<path d="M1.05469 101.97V7.03C1.05469 6.22639 1.37823 5.4557 1.95415 4.88747C2.53006 4.31923 3.31117 4 4.12563 4H63.7634C64.5776 4.00071 65.3582 4.3204 65.9335 4.8888L82.0458 20.7862C82.3322 21.0685 82.5593 21.4039 82.7139 21.7731C82.8685 22.1423 82.9476 22.538 82.9466 22.9375V101.97C82.9466 102.368 82.8671 102.762 82.7128 103.13C82.5585 103.497 82.3323 103.831 82.0471 104.113C81.762 104.394 81.4234 104.617 81.0508 104.769C80.6782 104.922 80.2789 105 79.8756 105H4.12563C3.72235 105 3.32302 104.922 2.95043 104.769C2.57785 104.617 2.23931 104.394 1.95415 104.113C1.66898 103.831 1.44278 103.497 1.28845 103.13C1.13412 102.762 1.05469 102.368 1.05469 101.97V101.97Z" fill="#FF7D7D" stroke="#FF7D7D" stroke-width="1.5" stroke-linecap="round" stroke-linejoin="round"/>
<path d="M81.0066 25.1081C81.7301 25.1105 82.4554 24.9257 83.0928 24.5548C83.733 24.1824 84.276 23.6253 84.6088 22.9215L84.6088 22.9215C84.9441 22.2123 85.0366 21.4124 84.8579 20.638C84.6807 19.8699 84.2562 19.2071 83.6892 18.7145L65.7235 2.98895L65.7216 2.98731C65.159 2.49611 64.4727 2.18561 63.7598 2.06183C63.047 1.93804 62.306 2.00016 61.6214 2.24818L62.3027 4.12858L61.6214 2.24818C60.9364 2.49634 60.3097 2.93105 59.8477 3.535C59.3824 4.14315 59.111 4.89109 59.1094 5.68425H59.1094V5.68832V20.2414C59.1094 21.6246 59.7394 22.8876 60.7513 23.7734C61.7548 24.6517 63.065 25.1081 64.3844 25.1081H81.0066ZM81.0066 25.1081C81.005 25.1081 81.0033 25.1081 81.0017 25.1081L81.0106 23.1081M81.0066 25.1081H81.0106V23.1081M81.0106 23.1081H64.3844C63.5158 23.1081 62.6828 22.8061 62.0686 22.2685C61.4544 21.7309 61.1094 21.0017 61.1094 20.2414V5.68832L64.4062 4.49388L82.3752 20.2223C82.6474 20.4579 82.8333 20.7592 82.9091 21.0877C82.9849 21.4161 82.9471 21.7569 82.8007 22.0666C82.6543 22.3762 82.4058 22.6406 82.087 22.8261C81.7682 23.0116 81.3934 23.1098 81.0106 23.1081Z" fill="#FF7D7D" stroke="#FFE2E2" stroke-width="4" stroke-linecap="round" stroke-linejoin="round"/>
<path d="M22.8906 44.946H61.1068" stroke="#FFE2E2" stroke-width="4" stroke-linecap="round" stroke-linejoin="round"/>
<path d="M22.8906 85.8919H61.1068" stroke="#FFE2E2" stroke-width="4" stroke-linecap="round" stroke-linejoin="round"/>
<path d="M22.8906 64.054H41.9987" stroke="#FFE2E2" stroke-width="4" stroke-linecap="round" stroke-linejoin="round"/>
</svg>
