<svg width="103" height="92" viewBox="0 0 103 92" fill="none" xmlns="http://www.w3.org/2000/svg">
<path fill-rule="evenodd" clip-rule="evenodd" d="M0.447615 35.7767C0.447615 15.3073 19.5217 0 41.3353 0C63.1489 0 82.223 15.3073 82.223 35.7767C82.223 56.2461 63.1489 71.5534 41.3353 71.5534C35.6967 71.5677 30.1037 70.542 24.8371 68.5277L6.36611 71.4921C5.50639 71.6302 4.62563 71.5464 3.80739 71.2486C2.98914 70.9509 2.26055 70.449 1.69072 69.7906C1.12089 69.1322 0.728721 68.3391 0.551416 67.4866C0.37411 66.6341 0.417548 65.7504 0.677609 64.9194L4.76638 51.82C1.94477 46.9435 0.455367 41.4107 0.447615 35.7767ZM41.3353 77.5179C36.5208 77.5179 31.8545 76.8893 27.4539 75.724C34.875 85.675 47.7598 91.9973 61.7791 91.9973C67.4178 92.0119 73.0108 90.9862 78.2773 88.9716L96.7483 91.9359C97.608 92.0741 98.4888 91.9903 99.307 91.6925C100.125 91.3947 100.854 90.8928 101.424 90.2344C101.994 89.576 102.386 88.7829 102.563 87.9304C102.74 87.0779 102.697 86.1943 102.437 85.3632L98.348 72.2639C101.17 67.3874 102.659 61.8545 102.667 56.2206C102.667 45.1196 97.055 35.5365 88.443 29.0916C88.8383 31.298 89.0367 33.5352 89.0359 35.7767C89.0359 59.6602 66.7879 77.5179 41.3353 77.5179Z" fill="#C1C1F2"/>
</svg>
