<svg width="108" height="102" viewBox="0 0 108 102" fill="none" xmlns="http://www.w3.org/2000/svg">
<path d="M98.6835 32.0538L107.254 87.7434C107.525 89.506 107.412 91.3063 106.922 93.0212C106.433 94.736 105.578 96.3248 104.418 97.6787C103.257 99.0326 101.818 100.12 100.198 100.866C98.5779 101.611 96.816 101.998 95.0327 102H12.4883C10.7039 102 8.94066 101.615 7.31931 100.869C5.69797 100.124 4.25692 99.0375 3.09496 97.6834C1.933 96.3292 1.07761 94.7398 0.58744 93.0241C0.0972676 91.3084 -0.0160943 89.507 0.255126 87.7434L8.82515 32.0538C9.27469 29.1306 10.7562 26.4651 13.0014 24.54C15.2466 22.6149 18.107 21.5575 21.0645 21.5594H86.4565C89.413 21.559 92.2719 22.6171 94.5158 24.542C96.7597 26.467 98.2403 29.1317 98.6897 32.0538H98.6835Z" fill="#79E852"/>
<path d="M66.1343 12.3755C66.1343 9.0933 64.8304 5.94555 62.5096 3.62469C60.1887 1.30384 57.041 0 53.7588 0C50.4766 0 47.3288 1.30384 45.008 3.62469C42.6871 5.94555 41.3833 9.0933 41.3833 12.3755" fill="#79E852"/>
<line x1="27.6118" y1="71.6897" x2="84.2325" y2="71.6897" stroke="#BFFFB5" stroke-width="2" stroke-linecap="round"/>
<line x1="39.3359" y1="54.1035" x2="72.5084" y2="54.1035" stroke="#BFFFB5" stroke-width="2" stroke-linecap="round"/>
</svg>
