<svg width="114" height="91" viewBox="0 0 114 91" fill="none" xmlns="http://www.w3.org/2000/svg">
<path d="M108.757 66.3482C109.22 63.8422 109.22 61.2828 108.757 58.7768L113.353 56.1285C113.887 55.8264 114.119 55.2043 113.941 54.6178C112.747 50.7787 110.699 47.2951 108.026 44.4158C107.617 43.9715 106.958 43.8648 106.423 44.167L101.827 46.8152C99.8852 45.1623 97.6584 43.8826 95.2535 43.0295V37.733C95.2535 37.1287 94.8259 36.5955 94.2381 36.4711C90.2655 35.5824 86.2216 35.618 82.4449 36.4711C81.8571 36.5955 81.4295 37.1287 81.4295 37.733V43.0295C79.0246 43.8826 76.7978 45.1623 74.856 46.8152L70.2599 44.167C69.7433 43.8648 69.0663 43.9715 68.6566 44.4158C65.9845 47.2951 63.9358 50.7787 62.7422 54.6178C62.5641 55.2043 62.8135 55.8264 63.3301 56.1285L67.9262 58.7768C67.463 61.2828 67.463 63.8422 67.9262 66.3482L63.3301 68.9965C62.7957 69.2986 62.5641 69.9207 62.7422 70.5072C63.9358 74.3463 65.9845 77.8121 68.6566 80.7092C69.0663 81.1535 69.7255 81.2602 70.2599 80.958L74.856 78.3098C76.7978 79.9627 79.0246 81.2424 81.4295 82.0955V87.392C81.4295 87.9963 81.8571 88.5295 82.4449 88.6539C86.4175 89.5426 90.4614 89.507 94.2381 88.6539C94.8259 88.5295 95.2535 87.9963 95.2535 87.392V82.0955C97.6584 81.2424 99.8852 79.9627 101.827 78.3098L106.423 80.958C106.94 81.2602 107.617 81.1535 108.026 80.7092C110.699 77.8299 112.747 74.3463 113.941 70.5072C114.119 69.9207 113.87 69.2986 113.353 68.9965L108.757 66.3482V66.3482ZM88.3593 71.1826C83.5851 71.1826 79.7193 67.308 79.7193 62.5625C79.7193 57.817 83.6029 53.9424 88.3593 53.9424C93.1158 53.9424 96.9993 57.817 96.9993 62.5625C96.9993 67.308 93.1336 71.1826 88.3593 71.1826ZM39.9042 45.5C52.499 45.5 62.7066 35.3158 62.7066 22.75C62.7066 10.1842 52.499 0 39.9042 0C27.3094 0 17.1018 10.1842 17.1018 22.75C17.1018 35.3158 27.3094 45.5 39.9042 45.5ZM75.7467 85.7568C75.337 85.5436 74.9273 85.2947 74.5354 85.0637L73.128 85.8813C72.0592 86.4855 70.8478 86.8232 69.6364 86.8232C67.6946 86.8232 65.8241 86.0057 64.488 84.5838C61.228 81.0646 58.734 76.7812 57.3267 72.2135C56.3469 69.0676 57.6651 65.7439 60.5154 64.091L61.9228 63.2734C61.905 62.8113 61.905 62.3492 61.9228 61.8871L60.5154 61.0695C57.6651 59.4344 56.3469 56.093 57.3267 52.9471C57.487 52.4316 57.7186 51.9162 57.8967 51.4008C57.2198 51.3475 56.5607 51.1875 55.8659 51.1875H52.8909C48.9361 53.0004 44.5359 54.0312 39.9042 54.0312C35.2725 54.0312 30.8901 53.0004 26.9175 51.1875H23.9425C10.7243 51.1875 0 61.8871 0 75.075V82.4688C0 87.1787 3.83009 91 8.5509 91H71.2575C73.0568 91 74.7313 90.4313 76.103 89.4893C75.8893 88.8139 75.7467 88.1207 75.7467 87.392V85.7568Z" fill="#FAC661"/>
</svg>
