<svg width="95" height="92" viewBox="0 0 95 92" fill="none" xmlns="http://www.w3.org/2000/svg">
<path fill-rule="evenodd" clip-rule="evenodd" d="M65.1043 26.6755L47.2198 33.8234V33.8175L3.42344 16.3049C4.07816 15.7949 4.80143 15.3796 5.57194 15.0713L20.8357 8.96813L65.1043 26.6755ZM6.75939e-06 23.2934C-0.000787879 22.6503 0.0684835 22.0091 0.206594 21.381L44.2685 38.9999V91.5024C42.6631 91.2722 41.0812 90.8472 39.5466 90.2334L5.56604 76.6459C3.92275 75.9887 2.51413 74.854 1.52199 73.3885C0.529845 71.9229 -0.000288865 70.1936 6.75939e-06 68.4237V23.2934ZM54.893 90.2334C53.3583 90.8531 51.7765 91.2663 50.171 91.5024V38.9999L94.233 21.381C94.3687 21.9949 94.4396 22.6442 94.4396 23.2934V47.7198C91.5289 45.992 88.1303 45 84.5 45C73.7304 45 65 53.7304 65 64.5C65 72.1049 69.3534 78.693 75.7041 81.9082L54.893 90.2334ZM73.0431 23.4941L91.022 16.3049C90.3672 15.795 89.644 15.3798 88.8735 15.0713L54.893 1.47789C49.9673 -0.492629 44.4723 -0.492629 39.5466 1.47789L28.7746 5.78669L73.0431 23.4941Z" fill="#5CC5E4"/>
</svg>
