<svg width="21" height="21" viewBox="0 0 21 21" fill="none" xmlns="http://www.w3.org/2000/svg">
<path d="M11.1176 1C11.1176 0.447716 11.5654 0 12.1176 0H20C20.5523 0 21 0.447715 21 1V6.41176C21 6.96405 20.5523 7.41176 20 7.41176H12.1176C11.5654 7.41176 11.1176 6.96405 11.1176 6.41176V1ZM12.1176 21C11.5654 21 11.1176 20.5523 11.1176 20V9.64706C11.1176 9.09477 11.5654 8.64706 12.1176 8.64706H20C20.5523 8.64706 21 9.09477 21 9.64706V20C21 20.5523 20.5523 21 20 21H12.1176ZM1 21C0.447715 21 0 20.5523 0 20V14.5882C0 14.036 0.447715 13.5882 1 13.5882H8.88235C9.43464 13.5882 9.88235 14.036 9.88235 14.5882V20C9.88235 20.5523 9.43464 21 8.88235 21H1ZM1 12.3529C0.447715 12.3529 0 11.9052 0 11.3529V1C0 0.447716 0.447715 0 1 0H8.88235C9.43464 0 9.88235 0.447715 9.88235 1V11.3529C9.88235 11.9052 9.43464 12.3529 8.88235 12.3529H1ZM2.2353 1.23529C1.68301 1.23529 1.23529 1.68301 1.23529 2.23529V10.1176C1.23529 10.6699 1.68301 11.1176 2.23529 11.1176H7.64706C8.19934 11.1176 8.64706 10.6699 8.64706 10.1176V2.23529C8.64706 1.68301 8.19934 1.23529 7.64706 1.23529H2.2353ZM13.3529 1.23529C12.8007 1.23529 12.3529 1.68301 12.3529 2.23529V5.17647C12.3529 5.72876 12.8007 6.17647 13.3529 6.17647H18.7647C19.317 6.17647 19.7647 5.72876 19.7647 5.17647V2.23529C19.7647 1.68301 19.317 1.23529 18.7647 1.23529H13.3529ZM13.3529 9.88235C12.8007 9.88235 12.3529 10.3301 12.3529 10.8824V18.7647C12.3529 19.317 12.8007 19.7647 13.3529 19.7647H18.7647C19.317 19.7647 19.7647 19.317 19.7647 18.7647V10.8824C19.7647 10.3301 19.317 9.88235 18.7647 9.88235H13.3529ZM2.2353 14.8235C1.68301 14.8235 1.23529 15.2712 1.23529 15.8235V18.7647C1.23529 19.317 1.68301 19.7647 2.23529 19.7647H7.64706C8.19934 19.7647 8.64706 19.317 8.64706 18.7647V15.8235C8.64706 15.2712 8.19934 14.8235 7.64706 14.8235H2.2353Z" fill="white"/>
</svg>
