<svg width="19" height="19" viewBox="0 0 19 19" fill="none" xmlns="http://www.w3.org/2000/svg">
<path d="M12.8476 1.05827C13.4867 0.416963 14.3443 0.0401517 15.2492 0.00302833C16.154 -0.034095 17.0396 0.2712 17.7292 0.857992L17.9359 1.04873L18.1363 1.26491C18.6938 1.91958 19 2.75127 19 3.61104C19 4.47081 18.6938 5.30249 18.1363 5.95717L17.9455 6.1638L7.01185 17.1363C6.76603 17.383 6.46914 17.5728 6.14205 17.6926L5.8924 17.7689L0.985307 18.9769C0.862922 19.0071 0.735119 19.0077 0.612442 18.9788C0.489764 18.9498 0.375729 18.8921 0.279742 18.8105C0.183755 18.7288 0.108568 18.6255 0.0603841 18.5091C0.0122 18.3926 -0.00760036 18.2664 0.00261601 18.1408L0.0264683 18.0073L1.28584 13.1275C1.37013 12.799 1.52355 12.4923 1.73584 12.2278L1.90439 12.0387L12.8476 1.05827ZM16.8133 2.17411C16.4629 1.82532 15.9961 1.61802 15.5023 1.59192C15.0085 1.56582 14.5224 1.72274 14.1372 2.03265L13.975 2.18047L3.03179 13.1609C2.96568 13.2272 2.91185 13.3047 2.87277 13.3898L2.82507 13.5233L1.89803 17.1156L5.51237 16.2255C5.5748 16.21 5.63513 16.187 5.69205 16.1571L5.77473 16.1078L5.88604 16.014L16.8181 5.04319C17.1978 4.66196 17.4106 4.14564 17.4097 3.60767C17.4088 3.0697 17.1943 2.55408 16.8133 2.17411Z" fill="#FF6969"/>
</svg>
