<svg width="42" height="29" viewBox="0 0 42 29" fill="none" xmlns="http://www.w3.org/2000/svg">
<path d="M35.4375 0H21V3.09356L17.9721 4.59375H21V9.1875H17.9721L21 10.7592V13.7812H20.874L12.4688 9.61472V13.7812H8.53125V9.61472L0.153563 13.7812H0V21.6562C0 25.643 2.21353 28.875 6.5625 28.875H35.4375C39.7865 28.875 42 25.643 42 21.6562V7.21875C42 3.23203 39.7865 0 35.4375 0Z" fill="#2B3990"/>
<path d="M20.9983 1.53824V1.52118L14.9805 4.59374L20.9983 1.53824Z" fill="#4189DD"/>
<path d="M0 9.1875V10.7835L3.07519 9.1875H0Z" fill="#2B3990"/>
<path d="M0.795094 3.465C0.620538 3.82881 0.476116 4.20633 0.363281 4.59375H3.07491L0.795094 3.465Z" fill="#2B3990"/>
<path d="M21 0.00656265V0H12.4688V4.39622L21 0.00656265Z" fill="#2B3990"/>
<path d="M8.529 4.39622V0H6.56025C4.84087 0 3.46078 0.510562 2.41406 1.36828L8.529 4.39622Z" fill="#2B3990"/>
<path d="M21 5.25V4.59375H17.9721L21 3.09356V1.53825L14.9822 4.59375H12.9885L21 0.503344V0.00656265L12.4688 4.39622V0H11.8125V5.25H21Z" fill="white"/>
<path d="M11.8125 13.7812H12.4688V9.61472L20.874 13.7812H21V12.285L14.9822 9.1875H16.9765L21 11.2678V10.7592L17.9721 9.1875H21V8.53125H11.8125V13.7812Z" fill="white"/>
<path d="M8.53125 9.61472V13.7812H9.1875V8.53125H0V9.1875H3.07519L0 10.7835V12.2916L6.06506 9.1875H8.06006L0 13.3088V13.7812H0.153563L8.53125 9.61472Z" fill="white"/>
<path d="M2.41537 1.37156C2.07019 1.6544 1.76241 1.97531 1.49072 2.32903L6.06412 4.59703H4.06978L0.988688 3.08634C0.920152 3.21169 0.855373 3.33906 0.794438 3.46828L3.07425 4.59703H0.362625C0.299625 4.81096 0.245156 5.02949 0.199219 5.25328H9.18656V0.00327682H8.53031V4.3995L2.41537 1.37156Z" fill="white"/>
<path d="M9.1875 13.7812H11.8125V8.53125H21V5.46853L11.8125 5.90625V0H9.1875V5.90625L0.149625 5.51841C0.0504895 6.07977 0.000425386 6.6487 0 7.21875L0 8.53125H9.1875V13.7812Z" fill="#FF0000"/>
<path d="M11.8125 5.90625L21 5.46853V5.25H11.8125V5.90625Z" fill="#FF0000"/>
<path d="M0.148438 5.51841L9.18631 5.90625V5.25H0.198969C0.179938 5.33859 0.164188 5.42784 0.148438 5.51841Z" fill="#FF0000"/>
<path d="M6.06437 4.59375L1.48638 2.331C1.30288 2.56967 1.13644 2.82098 0.988281 3.08306L4.07003 4.59375H6.06437Z" fill="#FF0000"/>
<path d="M1.49156 2.32575L1.48828 2.331L6.06562 4.59375L1.49156 2.32575Z" fill="#FF0000"/>
<path d="M14.982 4.59376L20.9998 1.52119V0.503349L12.9883 4.59376H14.982Z" fill="#FF0000"/>
<path d="M14.9805 9.1875L20.9983 12.2601V11.2678L16.9748 9.1875H14.9805Z" fill="#FF0000"/>
<path d="M20.9983 12.285V12.2601L14.9805 9.1875L20.9983 12.285Z" fill="#FF0000"/>
<path d="M6.06506 9.1875L0 12.3067V13.3088L8.06006 9.1875H6.06506Z" fill="#FF0000"/>
<path d="M0 12.2916V12.3067L6.06506 9.1875L0 12.2916Z" fill="#FF0000"/>
<path d="M9.67563 19.9237L10.5005 17.4044L11.3071 19.9237L13.7575 18.9787L12.3092 21.1706L14.589 22.5159L11.9508 22.7456L12.3098 25.3673L10.5012 23.4544L8.68141 25.3673L9.03316 22.7456L6.41406 22.5291L8.67419 21.1772L7.21797 18.9787L9.67563 19.9237Z" fill="white"/>
<path d="M30.8169 20.8077L31.1404 19.8122L31.4607 20.8077L32.4267 20.4356L31.857 21.3019L32.7574 21.8334L31.7179 21.9253L31.857 22.9589L31.1404 22.2036L30.4251 22.9589L30.5622 21.9253L29.5273 21.8334L30.4185 21.3019L29.8476 20.4356L30.8169 20.8077Z" fill="white"/>
<path d="M25.2622 12.0468L25.5877 11.0519L25.9066 12.0468L26.8746 11.674L26.301 12.5409L27.2027 13.0725L26.1606 13.1644L26.301 14.1986L25.5877 13.4426L24.8684 14.1986L25.0082 13.1644L23.9727 13.0751L24.8665 12.5409L24.2929 11.674L25.2622 12.0468Z" fill="white"/>
<path d="M35.7538 10.5787L36.0779 9.58322L36.3969 10.5787L37.3648 10.2053L36.7906 11.0722L37.6963 11.6038L36.6508 11.6937L36.7906 12.7293L36.0779 11.9766L35.3587 12.7293L35.4978 11.6937L34.4609 11.6064L35.3561 11.0749L34.7805 10.2053L35.7538 10.5787Z" fill="white"/>
<path d="M33.5208 14.8339L33.6783 14.3371L33.8397 14.8339L34.3214 14.6475L34.0379 15.0806L34.4855 15.3464L33.9677 15.391L34.0379 15.9075L33.6783 15.5315L33.3219 15.9075L33.3915 15.391L32.8711 15.3477L33.3206 15.0819L33.0352 14.6475L33.5208 14.8339Z" fill="white"/>
<path d="M30.8169 6.00469L31.1404 5.00982L31.4607 6.00469L32.4267 5.63194L31.857 6.49885L32.7574 7.03041L31.7179 7.12032L31.857 8.15653L31.1404 7.40053L30.4251 8.15653L30.5622 7.12032L29.5273 7.03303L30.4185 6.50147L29.8476 5.63194L30.8169 6.00469Z" fill="white"/>
</svg>
