<svg width="20" height="21" viewBox="0 0 20 21" fill="none" xmlns="http://www.w3.org/2000/svg">
<path d="M17.8153 8.06799L19.2772 17.568C19.3234 17.8687 19.3041 18.1758 19.2207 18.4683C19.1372 18.7608 18.9914 19.0319 18.7934 19.2628C18.5955 19.4938 18.3499 19.6792 18.0736 19.8065C17.7972 19.9337 17.4967 19.9997 17.1925 20H3.11136C2.80698 20 2.50618 19.9342 2.2296 19.8071C1.95302 19.68 1.70719 19.4946 1.50897 19.2636C1.31076 19.0326 1.16484 18.7615 1.08122 18.4688C0.997601 18.1761 0.978263 17.8688 1.02453 17.568L2.48647 8.06799C2.56316 7.56934 2.81589 7.11463 3.1989 6.78624C3.5819 6.45784 4.06985 6.27746 4.57436 6.27777H15.7295C16.2338 6.27771 16.7215 6.4582 17.1043 6.78658C17.4871 7.11496 17.7396 7.56952 17.8163 8.06799H17.8153Z" stroke="#292929" stroke-width="1.3" stroke-linecap="round" stroke-linejoin="round"/>
<path d="M12.2627 3.11111C12.2627 2.55121 12.0403 2.01424 11.6444 1.61833C11.2485 1.22242 10.7115 1 10.1516 1C9.59174 1 9.05477 1.22242 8.65886 1.61833C8.26295 2.01424 8.04053 2.55121 8.04053 3.11111" stroke="#292929" stroke-width="1.3" stroke-linecap="round" stroke-linejoin="round"/>
<line x1="5.97998" y1="14.5" x2="14.98" y2="14.5" stroke="#292929" stroke-linecap="round"/>
<line x1="7.97998" y1="11.5" x2="12.98" y2="11.5" stroke="#292929" stroke-linecap="round"/>
</svg>
