<svg width="36" height="36" viewBox="0 0 36 36" fill="none" xmlns="http://www.w3.org/2000/svg">
<circle cx="18" cy="18" r="18" fill="#B16846"/>
<path d="M24.6214 24.7848H10.8646C10.0293 24.7848 9.39062 24.1461 9.39062 23.3109V14.4672C9.39062 13.632 10.0293 12.9933 10.8646 12.9933H13.8125C13.9107 12.9933 14.0581 12.895 14.1072 12.8459L14.6477 11.765C14.8442 11.3719 15.3355 11.0771 15.7777 11.0771H19.7082C20.1504 11.0771 20.6417 11.3719 20.8383 11.765L21.3787 12.8459C21.4278 12.9441 21.5752 12.9933 21.6735 12.9933H24.6214C25.4566 12.9933 26.0953 13.632 26.0953 14.4672V23.3109C26.0953 24.1461 25.4566 24.7848 24.6214 24.7848ZM10.8646 13.9759C10.5698 13.9759 10.3733 14.1724 10.3733 14.4672V23.3109C10.3733 23.6057 10.5698 23.8022 10.8646 23.8022H24.6214C24.9162 23.8022 25.1127 23.6057 25.1127 23.3109V14.4672C25.1127 14.1724 24.9162 13.9759 24.6214 13.9759H21.6735C21.2313 13.9759 20.74 13.6811 20.5435 13.2881L20.003 12.2072C19.9539 12.1089 19.8065 12.0106 19.7082 12.0106H15.7777C15.6795 12.0106 15.5321 12.1089 15.4829 12.158L14.9425 13.2389C14.746 13.6811 14.2546 13.9759 13.8125 13.9759H10.8646Z" fill="white"/>
<path d="M17.7421 22.8196C15.2856 22.8196 13.3203 20.8543 13.3203 18.3978C13.3203 15.9412 15.2856 13.9759 17.7421 13.9759C20.1987 13.9759 22.164 15.9412 22.164 18.3978C22.164 20.8543 20.1987 22.8196 17.7421 22.8196ZM17.7421 14.9586C15.826 14.9586 14.3029 16.4816 14.3029 18.3978C14.3029 20.3139 15.826 21.837 17.7421 21.837C19.6583 21.837 21.1813 20.3139 21.1813 18.3978C21.1813 16.4816 19.6583 14.9586 17.7421 14.9586Z" fill="white"/>
<path d="M22.6554 15.4499C22.9267 15.4499 23.1467 15.2299 23.1467 14.9585C23.1467 14.6872 22.9267 14.4672 22.6554 14.4672C22.384 14.4672 22.1641 14.6872 22.1641 14.9585C22.1641 15.2299 22.384 15.4499 22.6554 15.4499Z" fill="white"/>
<path d="M11.3555 12.0107H13.3207V12.502H11.3555V12.0107Z" fill="white"/>
<path d="M17.7417 16.4325V15.9412C16.366 15.9412 15.2852 17.0221 15.2852 18.3977H15.7765C15.7765 17.3168 16.6608 16.4325 17.7417 16.4325Z" fill="white"/>
</svg>
