<svg xmlns="http://www.w3.org/2000/svg" width="26" height="26.998" viewBox="0 0 26 26.998">
  <g id="Group_260" data-name="Group 260" transform="translate(-1751.031 -86.881)">
    <g id="Ellipse_268" data-name="Ellipse 268" transform="translate(1758.031 86.881)" fill="none" stroke="#c4734e" stroke-linecap="round" stroke-linejoin="round" stroke-width="1.5">
      <circle cx="6" cy="6" r="6" stroke="none"/>
      <circle cx="6" cy="6" r="5.25" fill="none"/>
    </g>
    <g id="Subtraction_1" data-name="Subtraction 1" transform="translate(1751.03 100.881)" fill="none" stroke-linecap="round" stroke-linejoin="round">
      <path d="M26,13H0a13,13,0,0,1,26,0Z" stroke="none"/>
      <path d="M 24.40312194824219 11.498046875 C 23.66596794128418 5.863204002380371 18.83398818969727 1.498046875 13.00243854522705 1.498046875 C 9.930808067321777 1.498046875 7.042348384857178 2.694636821746826 4.86957836151123 4.866976737976074 C 3.054887533187866 6.682753562927246 1.921214818954468 8.99628734588623 1.596942067146301 11.498046875 L 24.40312194824219 11.498046875 M 26.00048828125 12.998046875 L 0.00048828125 12.998046875 C 0.00048828125 9.525386810302734 1.353028297424316 6.263676643371582 3.808598279953003 3.806636810302734 C 6.264158248901367 1.351566910743713 9.529297828674316 -0.001953125 13.00243854522705 -0.001953125 C 20.16845893859863 -0.001953125 25.99950790405273 5.830076694488525 26.00048828125 12.99609661102295 L 26.00048828125 12.998046875 Z" stroke="none" fill="#c4734e"/>
    </g>
  </g>
</svg>
